<mxfile host="65bd71144e">
    <diagram id="MuZAtRpMIBstmGgHcjIb" name="Page-1">
        <mxGraphModel dx="990" dy="614" grid="1" gridSize="10" guides="1" tooltips="1" connect="1" arrows="1" fold="1" page="1" pageScale="1" pageWidth="850" pageHeight="1100" math="0" shadow="0">
            <root>
                <mxCell id="0"/>
                <mxCell id="1" parent="0"/>
                <mxCell id="142" value="&lt;span&gt;Sơ đồ&amp;nbsp;&lt;/span&gt;activity của hệ thống mua vé đi công tác (mở rộng 1)&amp;nbsp; hỗ trợ ưu tiên (fleet_business_rent_priority)&amp;nbsp;" style="text;html=1;align=center;verticalAlign=middle;resizable=0;points=[];autosize=1;strokeColor=none;fillColor=none;fontStyle=1" parent="1" vertex="1">
                    <mxGeometry x="15" y="40" width="620" height="20" as="geometry"/>
                </mxCell>
                <mxCell id="144" style="edgeStyle=none;html=1;" parent="1" source="145" target="149" edge="1">
                    <mxGeometry relative="1" as="geometry"/>
                </mxCell>
                <mxCell id="145" value="Đăng ký mượn xe đi công tác" style="whiteSpace=wrap;html=1;rounded=0;" parent="1" vertex="1">
                    <mxGeometry x="170" y="250" width="120" height="60" as="geometry"/>
                </mxCell>
                <mxCell id="146" value="" style="edgeStyle=none;html=1;" parent="1" source="149" edge="1">
                    <mxGeometry relative="1" as="geometry">
                        <Array as="points">
                            <mxPoint x="140" y="370"/>
                        </Array>
                        <mxPoint x="140" y="390" as="targetPoint"/>
                    </mxGeometry>
                </mxCell>
                <mxCell id="147" style="edgeStyle=none;html=1;entryX=0.5;entryY=0;entryDx=0;entryDy=0;" parent="1" source="149" target="152" edge="1">
                    <mxGeometry relative="1" as="geometry"/>
                </mxCell>
                <mxCell id="148" style="edgeStyle=none;html=1;entryX=0.076;entryY=0.021;entryDx=0;entryDy=0;fontSize=11;entryPerimeter=0;" parent="1" source="149" target="153" edge="1">
                    <mxGeometry relative="1" as="geometry">
                        <Array as="points">
                            <mxPoint x="320" y="370"/>
                        </Array>
                    </mxGeometry>
                </mxCell>
                <mxCell id="149" value="" style="html=1;points=[];perimeter=orthogonalPerimeter;fillColor=#000000;strokeColor=none;rounded=1;rotation=90;" parent="1" vertex="1">
                    <mxGeometry x="227.5" y="260" width="5" height="180" as="geometry"/>
                </mxCell>
                <mxCell id="150" value="Thêm địa điểm đón, đến và thời gian đón, đến" style="whiteSpace=wrap;html=1;rounded=0;fontSize=11;" parent="1" vertex="1">
                    <mxGeometry x="20" y="390" width="130" height="60" as="geometry"/>
                </mxCell>
                <mxCell id="151" style="edgeStyle=none;html=1;fontSize=11;endArrow=classic;endFill=1;" parent="1" source="152" target="188" edge="1">
                    <mxGeometry relative="1" as="geometry">
                        <mxPoint x="230" y="470" as="targetPoint"/>
                    </mxGeometry>
                </mxCell>
                <mxCell id="152" value="Thêm 1 hoặc nhiều nhân viên tham gia" style="whiteSpace=wrap;html=1;rounded=0;fontSize=11;" parent="1" vertex="1">
                    <mxGeometry x="170" y="390" width="120" height="60" as="geometry"/>
                </mxCell>
                <mxCell id="153" value="Chọn phương tiện đi công tác" style="whiteSpace=wrap;html=1;rounded=0;fontSize=11;" parent="1" vertex="1">
                    <mxGeometry x="310" y="390" width="130" height="60" as="geometry"/>
                </mxCell>
                <mxCell id="154" value="" style="endArrow=none;html=1;fontSize=11;entryX=0.943;entryY=1.006;entryDx=0;entryDy=0;entryPerimeter=0;startArrow=classic;startFill=1;" parent="1" target="150" edge="1">
                    <mxGeometry width="50" height="50" relative="1" as="geometry">
                        <mxPoint x="143" y="490" as="sourcePoint"/>
                        <mxPoint x="150" y="500" as="targetPoint"/>
                        <Array as="points">
                            <mxPoint x="143" y="470"/>
                        </Array>
                    </mxGeometry>
                </mxCell>
                <mxCell id="155" value="" style="endArrow=none;html=1;fontSize=11;entryX=0.071;entryY=1.026;entryDx=0;entryDy=0;entryPerimeter=0;exitX=0.7;exitY=0.003;exitDx=0;exitDy=0;exitPerimeter=0;startArrow=classic;startFill=1;" parent="1" source="188" target="153" edge="1">
                    <mxGeometry width="50" height="50" relative="1" as="geometry">
                        <mxPoint x="270" y="470" as="sourcePoint"/>
                        <mxPoint x="310.29999999999995" y="470" as="targetPoint"/>
                        <Array as="points">
                            <mxPoint x="319" y="470"/>
                        </Array>
                    </mxGeometry>
                </mxCell>
                <mxCell id="156" value="" style="endArrow=none;html=1;fontSize=11;endFill=0;startArrow=classic;startFill=1;" parent="1" edge="1">
                    <mxGeometry width="50" height="50" relative="1" as="geometry">
                        <mxPoint x="230" y="530" as="sourcePoint"/>
                        <mxPoint x="230" y="490" as="targetPoint"/>
                    </mxGeometry>
                </mxCell>
                <mxCell id="157" style="edgeStyle=none;html=1;endArrow=classic;endFill=1;" parent="1" source="158" target="177" edge="1">
                    <mxGeometry relative="1" as="geometry">
                        <mxPoint x="520" y="560" as="targetPoint"/>
                    </mxGeometry>
                </mxCell>
                <mxCell id="158" value="Tạo thành công record công tác trên database (chưa duyệt)" style="whiteSpace=wrap;html=1;rounded=0;fontSize=11;" parent="1" vertex="1">
                    <mxGeometry x="165" y="530" width="130" height="60" as="geometry"/>
                </mxCell>
                <mxCell id="160" value="Văn Phòng" style="rounded=1;whiteSpace=wrap;html=1;strokeWidth=2;dashed=1;" parent="1" vertex="1">
                    <mxGeometry x="180" y="80" width="100" height="40" as="geometry"/>
                </mxCell>
                <mxCell id="176" style="edgeStyle=none;html=1;entryX=0.5;entryY=0;entryDx=0;entryDy=0;" parent="1" source="177" target="185" edge="1">
                    <mxGeometry relative="1" as="geometry"/>
                </mxCell>
                <mxCell id="177" value="Cập nhật record công tác hỗ trợ chuyến công tác và lên kế hoạch mua vé" style="whiteSpace=wrap;html=1;rounded=0;fontSize=11;" parent="1" vertex="1">
                    <mxGeometry x="535" y="530" width="130" height="60" as="geometry"/>
                </mxCell>
                <mxCell id="178" value="Hủy vĩnh viễn chuyến công tác" style="whiteSpace=wrap;html=1;rounded=0;fontSize=11;" parent="1" vertex="1">
                    <mxGeometry x="165" y="650" width="130" height="60" as="geometry"/>
                </mxCell>
                <mxCell id="179" value="[Duyệt lại]" style="edgeStyle=none;html=1;endArrow=none;endFill=0;" parent="1" source="181" target="177" edge="1">
                    <mxGeometry x="-0.8154" y="-35" relative="1" as="geometry">
                        <mxPoint as="offset"/>
                        <mxPoint x="375" y="680" as="targetPoint"/>
                        <Array as="points">
                            <mxPoint x="375" y="560"/>
                        </Array>
                    </mxGeometry>
                </mxCell>
                <mxCell id="180" value="[Hủy]" style="edgeStyle=none;html=1;endArrow=classic;endFill=1;" parent="1" source="181" target="178" edge="1">
                    <mxGeometry x="-0.1667" y="-10" relative="1" as="geometry">
                        <mxPoint as="offset"/>
                    </mxGeometry>
                </mxCell>
                <mxCell id="181" value="" style="rhombus;whiteSpace=wrap;html=1;" parent="1" vertex="1">
                    <mxGeometry x="355" y="660" width="40" height="40" as="geometry"/>
                </mxCell>
                <mxCell id="214" value="[Không mua vé]" style="edgeStyle=none;html=1;endArrow=classic;endFill=1;" parent="1" source="185" target="181" edge="1">
                    <mxGeometry x="-0.5" y="-10" relative="1" as="geometry">
                        <mxPoint as="offset"/>
                    </mxGeometry>
                </mxCell>
                <mxCell id="215" value="[Mua vé]" style="edgeStyle=none;html=1;endArrow=classic;endFill=1;" parent="1" source="185" target="200" edge="1">
                    <mxGeometry x="-0.2" y="30" relative="1" as="geometry">
                        <mxPoint as="offset"/>
                    </mxGeometry>
                </mxCell>
                <mxCell id="185" value="" style="rhombus;whiteSpace=wrap;html=1;" parent="1" vertex="1">
                    <mxGeometry x="580" y="660" width="40" height="40" as="geometry"/>
                </mxCell>
                <mxCell id="188" value="" style="html=1;points=[];perimeter=orthogonalPerimeter;fillColor=#000000;strokeColor=none;rounded=1;rotation=90;" parent="1" vertex="1">
                    <mxGeometry x="227.5" y="400" width="5" height="180" as="geometry"/>
                </mxCell>
                <mxCell id="192" value="" style="ellipse;html=1;shape=endState;fillColor=#000000;strokeColor=#ff0000;dashed=1;" parent="1" vertex="1">
                    <mxGeometry x="70" y="855" width="30" height="30" as="geometry"/>
                </mxCell>
                <mxCell id="193" value="&lt;span&gt;Hỗ trợ trực tiếp nhân&lt;br&gt;viên của chuyến&lt;br&gt;&amp;nbsp;công tác&lt;/span&gt;" style="text;html=1;align=center;verticalAlign=middle;resizable=0;points=[];autosize=1;strokeColor=none;fillColor=none;" parent="1" vertex="1">
                    <mxGeometry x="20" y="805" width="130" height="50" as="geometry"/>
                </mxCell>
                <mxCell id="194" value="" style="ellipse;html=1;shape=startState;fillColor=#000000;strokeColor=#ff0000;dashed=1;" parent="1" vertex="1">
                    <mxGeometry x="215" y="140" width="30" height="30" as="geometry"/>
                </mxCell>
                <mxCell id="195" value="" style="edgeStyle=orthogonalEdgeStyle;html=1;verticalAlign=bottom;endArrow=open;endSize=8;strokeColor=#ff0000;entryX=0.5;entryY=0;entryDx=0;entryDy=0;" parent="1" source="194" target="145" edge="1">
                    <mxGeometry relative="1" as="geometry">
                        <mxPoint x="230" y="220" as="targetPoint"/>
                    </mxGeometry>
                </mxCell>
                <mxCell id="196" value="" style="ellipse;html=1;shape=endState;fillColor=#000000;strokeColor=#ff0000;dashed=1;" parent="1" vertex="1">
                    <mxGeometry x="70" y="665" width="30" height="30" as="geometry"/>
                </mxCell>
                <mxCell id="197" value="" style="edgeStyle=orthogonalEdgeStyle;html=1;verticalAlign=bottom;endArrow=open;endSize=8;strokeColor=#ff0000;exitX=0;exitY=0.5;exitDx=0;exitDy=0;" parent="1" source="178" target="196" edge="1">
                    <mxGeometry relative="1" as="geometry">
                        <mxPoint x="120" y="850" as="targetPoint"/>
                        <mxPoint x="120" y="770" as="sourcePoint"/>
                    </mxGeometry>
                </mxCell>
                <mxCell id="198" value="" style="edgeStyle=orthogonalEdgeStyle;html=1;verticalAlign=bottom;endArrow=open;endSize=8;strokeColor=#ff0000;" parent="1" source="212" target="192" edge="1">
                    <mxGeometry x="0.2727" y="15" relative="1" as="geometry">
                        <mxPoint x="630.0000000000001" y="870" as="targetPoint"/>
                        <mxPoint x="840" y="965" as="sourcePoint"/>
                        <mxPoint as="offset"/>
                        <Array as="points"/>
                    </mxGeometry>
                </mxCell>
                <mxCell id="199" style="edgeStyle=none;html=1;" parent="1" source="200" target="203" edge="1">
                    <mxGeometry relative="1" as="geometry"/>
                </mxCell>
                <mxCell id="200" value="Văn phòng tiến hành mua vé cho chuyến công tác" style="whiteSpace=wrap;html=1;rounded=0;fontSize=11;" parent="1" vertex="1">
                    <mxGeometry x="535" y="750" width="130" height="60" as="geometry"/>
                </mxCell>
                <mxCell id="201" value="[Mua vé thành công" style="edgeStyle=none;html=1;endArrow=classic;endFill=1;" parent="1" source="203" target="212" edge="1">
                    <mxGeometry x="-0.1429" y="-10" relative="1" as="geometry">
                        <mxPoint as="offset"/>
                    </mxGeometry>
                </mxCell>
                <mxCell id="202" value="[Mua vé thất bại]" style="edgeStyle=none;html=1;endArrow=classic;endFill=1;" parent="1" source="203" target="177" edge="1">
                    <mxGeometry x="-0.7849" y="10" relative="1" as="geometry">
                        <Array as="points">
                            <mxPoint x="720" y="870"/>
                            <mxPoint x="720" y="560"/>
                        </Array>
                        <mxPoint as="offset"/>
                    </mxGeometry>
                </mxCell>
                <mxCell id="203" value="" style="rhombus;whiteSpace=wrap;html=1;direction=south;" parent="1" vertex="1">
                    <mxGeometry x="580" y="850" width="40" height="40" as="geometry"/>
                </mxCell>
                <mxCell id="212" value="Gửi mail đến các nhân viên và chuyên viên tham dự công tác" style="whiteSpace=wrap;html=1;rounded=0;fontSize=11;" parent="1" vertex="1">
                    <mxGeometry x="310" y="840" width="130" height="60" as="geometry"/>
                </mxCell>
            </root>
        </mxGraphModel>
    </diagram>
</mxfile>